<svg xmlns="http://www.w3.org/2000/svg" version="1.1" xmlns:xlink="http://www.w3.org/1999/xlink" xmlns:svgjs="http://svgjs.dev/svgjs" width="1000" height="803" viewBox="0 0 1000 803"><g transform="matrix(1,0,0,1,0,0)"><svg viewBox="0 0 448 360" data-background-color="#676771" preserveAspectRatio="xMidYMid meet" height="803" width="1000" xmlns="http://www.w3.org/2000/svg" xmlns:xlink="http://www.w3.org/1999/xlink"><g id="tight-bounds" transform="matrix(1,0,0,1,0,0)"><svg viewBox="0 0 448 360" height="360" width="448"><g><svg></svg></g><g><svg viewBox="0 0 448 360" height="360" width="448"><g><path xmlns="http://www.w3.org/2000/svg" d="M193.855 44.683c1.378 0 2.494 1.116 2.495 2.494 0 1.378-1.116 2.494-2.495 2.495h-23.846l-17.167 17.167c-0.973 0.973-2.551 0.973-3.53 0-0.973-0.973-0.973-2.551 0-3.529l13.644-13.645h-40.378c-11.518 0-19.151 2.688-23.815 8.113-4.739 5.519-6.66 14.056-6.66 25.63 0 0.069 0 0.137-0.006 0.206l0.212 36.692 14.692-14.692c0.973-0.973 2.551-0.973 3.53 0 0.973 0.973 0.973 2.551 0 3.53l-18.178 18.178c0.206 35.832 0.193 71.358-0.013 107.19 25.486 25.2 50.617 50.312 75.811 75.791h25.38c1.378 0 2.494 1.116 2.495 2.495 0 1.378-1.116 2.494-2.495 2.494h-20.448l25.942 26.241 0.006-0.006c8.188 8.188 15.577 12.859 22.824 13.413 7.146 0.543 14.442-2.956 22.586-11.093l28.555-28.555h-20.722c-1.378 0-2.494-1.116-2.495-2.494 0-1.378 1.116-2.494 2.495-2.495h25.711l16.625-16.625c0.973-0.973 2.551-0.973 3.529 0 0.973 0.973 0.973 2.551 0 3.53l-13.101 13.102h40.377c11.518 0 19.151-2.688 23.815-8.113 4.739-5.519 6.66-14.056 6.66-25.63h0.013l-0.212-36.898-16.014 16.014c-0.973 0.973-2.551 0.973-3.53 0-0.973-0.973-0.973-2.551 0-3.53l19.5-19.5c-0.206-35.832-0.193-71.358 0.013-107.19-25.486-25.2-50.617-50.312-75.811-75.791h-26.147c-1.378 0-2.494-1.116-2.495-2.495 0-1.378 1.116-2.494 2.495-2.494h21.215l-25.824-26.123c-0.044-0.037-0.081-0.075-0.124-0.112-8.188-8.188-15.577-12.859-22.824-13.413-7.146-0.543-14.442 2.956-22.586 11.093l-28.555 28.555h18.858zM122.578 44.683h45.367l32.078-32.078c9.248-9.248 17.81-13.195 26.484-12.534 8.568 0.649 16.956 5.824 25.985 14.854 0.05 0.05 0.094 0.094 0.137 0.143l29.278 29.615h43.508c13.071 0 21.919 3.268 27.594 9.871 5.6 6.517 7.864 16.101 7.864 28.867 0 0.081-0.006 0.156-0.012 0.23l-0.225 39.742 28.43 28.112 0.006-0.006c9.03 9.03 14.206 17.411 14.854 25.985 0.661 8.674-3.293 17.236-12.534 26.484l-30.768 30.768 0.237 41.843h0.012c0 12.765-2.27 22.35-7.864 28.867-5.675 6.604-14.524 9.872-27.594 9.871h-45.366l-32.078 32.078c-9.248 9.248-17.81 13.195-26.484 12.534-8.568-0.649-16.956-5.824-25.985-14.854l0.006-0.006-29.421-29.758h-43.509c-13.071 0-21.919-3.268-27.594-9.872-5.6-6.517-7.864-16.101-7.863-28.866h0.012l0.231-39.972-28.293-27.969c-0.05-0.044-0.1-0.087-0.143-0.137-9.03-9.03-14.206-17.411-14.854-25.985-0.661-8.674 3.293-17.236 12.534-26.484l30.768-30.768-0.237-41.607c-0.006-0.075-0.012-0.156-0.012-0.23 0-12.765 2.27-22.35 7.864-28.867 5.675-6.604 14.524-9.872 27.594-9.871zM87.682 179.997l-0.274-47.724-27.276 27.276c-8.138 8.138-11.636 15.44-11.094 22.587 0.549 7.246 5.226 14.642 13.413 22.823 0.037 0.037 0.081 0.081 0.113 0.125l24.837 24.551 0.281-49.644zM92.303 241.483l-0.2 35.09h0.013c0 11.58 1.921 20.117 6.66 25.63 4.664 5.432 12.297 8.113 23.815 8.113h38.576l-33.55-33.936-35.308-34.903zM325.415 49.672h-38.575l33.549 33.936 35.308 34.902 0.2-34.884c-0.006-0.069-0.006-0.137-0.007-0.205 0-11.58-1.921-20.117-6.66-25.63-4.664-5.432-12.297-8.113-23.815-8.113zM360.599 130.352l-0.281 49.645 0.274 47.724 27.276-27.276c8.138-8.138 11.636-15.44 11.094-22.587-0.549-7.252-5.226-14.642-13.413-22.824l0.006-0.006-24.956-24.669z" fill="#000000" fill-rule="nonzero" stroke="none" stroke-width="1" stroke-linecap="butt" stroke-linejoin="miter" stroke-miterlimit="10" stroke-dasharray="" stroke-dashoffset="0" font-family="none" font-weight="none" font-size="none" text-anchor="none" style="mix-blend-mode: normal" data-fill-palette-color="tertiary"></path></g><g transform="matrix(1,0,0,1,112,144.2278297253664)"><svg viewBox="0 0 224 71.54434054926719" height="71.54434054926719" width="224"><g><svg viewBox="0 0 224 71.54434054926719" height="71.54434054926719" width="224"><g><svg viewBox="0 0 224 71.54434054926719" height="71.54434054926719" width="224"><g><svg viewBox="0 0 224 71.54434054926719" height="71.54434054926719" width="224"><g><svg viewBox="0 0 224 71.54434054926719" height="71.54434054926719" width="224"><g><svg viewBox="0 0 224 38.58759864712514" height="38.58759864712514" width="224"><g transform="matrix(1,0,0,1,0,0)"><svg width="224" viewBox="2.3299999237060547 -37.5 221.72999572753906 38.20000076293945" height="38.58759864712514" data-palette-color="#000000"><path d="M8.03 0L2.33 0 7.08-35 11.65-35 20.55-18.25 29.4-35 34-35 38.73 0 33.02 0 29.58-27.6 31.03-27.33 20.6-7.9 10.03-27.3 11.48-27.58 8.03 0ZM60 0.7L60 0.7Q54.85 0.7 50.94-1.55 47.02-3.8 44.84-7.9 42.65-12 42.65-17.55L42.65-17.55Q42.65-23.05 44.99-27.14 47.32-31.23 51.42-33.46 55.52-35.7 60.82-35.7L60.82-35.7Q63.62-35.7 66.17-35.11 68.72-34.52 70.6-33.68L70.6-33.68 70.02-28.7Q68.05-29.53 65.77-30.08 63.5-30.63 60.9-30.63L60.9-30.63Q56.67-30.63 53.95-28.89 51.22-27.15 49.91-24.19 48.6-21.23 48.6-17.57L48.6-17.57Q48.6-13.75 49.94-10.78 51.27-7.8 54-6.09 56.72-4.38 60.87-4.38L60.87-4.38Q62-4.38 63.47-4.56 64.95-4.75 66.3-5.18L66.3-5.18 66.3-12.83 61.07-12.83 61.07-17.55 71.75-17.55 71.75-1.95Q69.77-0.85 66.75-0.08 63.72 0.7 60 0.7ZM100.4 0L78.12 0 78.12-35 99.92-35 99.92-29.9 83.65-29.9 83.65-20.83 96.47-20.83 96.47-15.73 83.65-15.73 83.65-5.1 100.4-5.1 100.4 0ZM117.04 0.5L112.82 0.5Q110.49 0.5 109.06-0.4 107.62-1.3 106.96-2.7 106.29-4.1 106.29-5.65L106.29-5.65 106.29-20.53 102.37-20.53 102.84-24.7 106.29-24.7 106.29-30.53 111.52-31.08 111.52-24.7 117.57-24.7 117.57-20.53 111.52-20.53 111.52-8.3Q111.52-6.15 111.77-5.19 112.02-4.23 112.99-3.98 113.97-3.73 116.09-3.73L116.09-3.73 117.49-3.73 117.04 0.5ZM133.27 0.5L133.27 0.5Q128.84 0.5 125.87-1.29 122.89-3.08 121.38-6.04 119.87-9 119.87-12.53L119.87-12.53Q119.87-15.95 121.28-18.82 122.69-21.7 125.4-23.44 128.12-25.18 131.97-25.18L131.97-25.18Q135.24-25.18 137.64-23.85 140.04-22.53 141.33-20.15 142.62-17.78 142.62-14.6L142.62-14.6Q142.62-13.95 142.55-13.25 142.49-12.55 142.34-11.78L142.34-11.78 125.27-11.78Q125.59-8.85 126.82-7.14 128.04-5.43 129.87-4.7 131.69-3.98 133.82-3.98L133.82-3.98Q135.72-3.98 137.57-4.41 139.42-4.85 141.04-5.68L141.04-5.68 141.52-1.4Q140.09-0.73 138.02-0.11 135.94 0.5 133.27 0.5ZM125.57-15.35L125.57-15.35 137.27-15.35Q137.27-16.82 136.72-18.04 136.17-19.25 134.98-19.98 133.79-20.7 131.92-20.7L131.92-20.7Q129.17-20.7 127.65-19.25 126.14-17.8 125.57-15.35ZM152.44 0L147.04 0 147.04-24.7 151.64-24.7 152.01-21.25Q153.51-23.05 155.23-24.13 156.94-25.2 158.94-25.2L158.94-25.2Q159.54-25.2 160.06-25.08L160.06-25.08 159.61-19.65Q159.19-19.75 158.75-19.8 158.31-19.85 157.84-19.85L157.84-19.85Q156.04-19.85 154.55-19.04 153.06-18.23 152.44-17.2L152.44-17.2 152.44 0ZM168.36 0L163.14 0 163.14-24.7 167.61-24.7 168.24-20.03 166.64-21.28Q168.66-23.38 170.86-24.28 173.06-25.18 175.46-25.18L175.46-25.18Q180.59-25.18 182.91-22.04 185.24-18.9 185.24-13.7L185.24-13.7 185.24 0 180.01 0 180.01-13.48Q180.01-17.2 178.69-18.95 177.36-20.7 174.21-20.7L174.21-20.7Q171.89-20.7 170.12-19.64 168.36-18.57 167.56-16.48L167.56-16.48 168.36-19.35 168.36 0ZM196.51 0.5L196.51 0.5Q194.36 0.5 192.68-0.41 191.01-1.33 190.05-2.95 189.08-4.58 189.08-6.78L189.08-6.78Q189.08-8.88 190.03-10.36 190.98-11.85 192.56-12.85 194.13-13.85 196.02-14.44 197.91-15.03 199.86-15.3 201.81-15.58 203.48-15.6L203.48-15.6Q203.46-18.53 202.23-19.56 201.01-20.6 198.51-20.6L198.51-20.6Q197.01-20.6 195.43-20.16 193.86-19.73 191.88-18.53L191.88-18.53 191.28-22.78Q193.08-23.88 195.31-24.53 197.53-25.18 199.91-25.18L199.91-25.18Q202.88-25.18 204.83-24.13 206.78-23.08 207.76-20.65 208.73-18.23 208.73-14.15L208.73-14.15 208.73-8.4Q208.73-6.6 208.9-5.59 209.06-4.58 209.61-4.15 210.16-3.73 211.28-3.73L211.28-3.73 211.88-3.73 211.23 0.5 210.08 0.5Q208.23 0.5 207.1 0.1 205.96-0.3 205.26-1.04 204.56-1.78 204.08-2.8L204.08-2.8Q202.76-1.3 200.8-0.4 198.83 0.5 196.51 0.5ZM198.11-3.6L198.11-3.6Q199.51-3.6 201-4.3 202.48-5 203.51-6.25L203.51-6.25 203.51-12.05Q200.71-11.93 198.7-11.39 196.68-10.85 195.6-9.78 194.51-8.7 194.51-7.03L194.51-7.03Q194.51-5.23 195.46-4.41 196.41-3.6 198.11-3.6ZM223.46 0.5L221.66 0.5Q219.36 0.5 217.96-0.38 216.56-1.25 215.92-2.66 215.28-4.08 215.28-5.68L215.28-5.68 215.28-37.5 220.51-37.5 220.51-8.25Q220.51-6.2 220.77-5.24 221.03-4.28 221.79-4 222.56-3.73 224.06-3.73L224.06-3.73 223.46 0.5Z" opacity="1" transform="matrix(1,0,0,1,0,0)" fill="#000000" class="undefined-text-0" data-fill-palette-color="primary" id="text-0"></path></svg></g></svg></g><g transform="matrix(1,0,0,1,0,47.697204585343854)"><svg viewBox="0 0 105.17654742297533 23.847135963923336" height="23.847135963923336" width="105.17654742297533"><g transform="matrix(1,0,0,1,0,0)"><svg width="105.17654742297533" viewBox="4.550000190734863 -35 206.8300018310547 46.900001525878906" height="23.847135963923336" data-palette-color="#ffffff"><path d="M29.85-18.75L29.85-18.75Q29.85-10.3 24.95-5.15 20.05 0 11.85 0L11.85 0 4.55 0 4.55-35 13.4-35Q20.85-35 25.35-30.45 29.85-25.9 29.85-18.75ZM25.8-19.15L25.8-19.15Q25.8-25.05 22.2-28.4 18.6-31.75 13.6-31.75L13.6-31.75 8.6-31.75 8.6-3.25 12.3-3.25Q17.95-3.25 21.88-7.5 25.8-11.75 25.8-19.15ZM54.25-11.7L54.25-11.7 38.3-11.7Q38.3-6.9 40.57-4.9 42.85-2.9 46.3-2.9L46.3-2.9Q48.05-2.9 48.75-3.08 49.45-3.25 50.07-3.43 50.7-3.6 50.95-3.7L50.95-3.7Q52.2-4.05 53.1-4.35L53.1-4.35 53.7-1.45Q48.7 0.3 45.9 0.3L45.9 0.3Q40.75 0.3 37.65-2.83 34.55-5.95 34.55-12.23 34.55-18.5 37.47-22 40.4-25.5 44.87-25.5 49.35-25.5 51.85-22.6 54.35-19.7 54.35-14.75L54.35-14.75Q54.35-13.4 54.25-11.7ZM38.55-14.55L38.55-14.55 50.75-14.55Q50.75-18.25 49.45-20.25 48.15-22.25 44.92-22.25 41.7-22.25 40.2-20.1 38.7-17.95 38.55-14.55ZM74.35-25.05L78.5-25.05 70.05 0 65.75 0 57.35-25.05 61.6-25.05 67.95-4 74.35-25.05ZM100.94-11.7L100.94-11.7 84.99-11.7Q84.99-6.9 87.27-4.9 89.54-2.9 92.99-2.9L92.99-2.9Q94.74-2.9 95.44-3.08 96.14-3.25 96.77-3.43 97.39-3.6 97.64-3.7L97.64-3.7Q98.89-4.05 99.79-4.35L99.79-4.35 100.39-1.45Q95.39 0.3 92.59 0.3L92.59 0.3Q87.44 0.3 84.34-2.83 81.24-5.95 81.24-12.23 81.24-18.5 84.17-22 87.09-25.5 91.57-25.5 96.04-25.5 98.54-22.6 101.04-19.7 101.04-14.75L101.04-14.75Q101.04-13.4 100.94-11.7ZM85.24-14.55L85.24-14.55 97.44-14.55Q97.44-18.25 96.14-20.25 94.84-22.25 91.62-22.25 88.39-22.25 86.89-20.1 85.39-17.95 85.24-14.55ZM111.79 0L108.04 0 108.04-35 111.79-35 111.79 0ZM136.34-12.33Q136.34-17.15 134.44-19.7 132.54-22.25 128.89-22.25 125.24-22.25 123.71-19.83 122.19-17.4 122.19-12.4L122.19-12.4Q122.19-2.95 129.14-2.95L129.14-2.95Q132.79-2.95 134.56-5.23 136.34-7.5 136.34-12.33ZM137.24-3.1Q134.39 0.3 129.19 0.3 123.99 0.3 121.21-3.08 118.44-6.45 118.44-12.53 118.44-18.6 121.11-22.05 123.79-25.5 128.96-25.5 134.14-25.5 137.11-22 140.09-18.5 140.09-12.5 140.09-6.5 137.24-3.1ZM150.54-2.05L150.54 11.9 146.79 11.9 146.79-24.95 148.99-24.95 150.29-22.15Q152.39-23.75 154.21-24.63 156.04-25.5 158.24-25.5L158.24-25.5Q167.24-25.5 167.24-12.55L167.24-12.55Q167.24-5.2 164.04-2.3L164.04-2.3Q161.19 0.35 157.56 0.35 153.94 0.35 150.54-2.05L150.54-2.05ZM150.54-18.8L150.54-18.8 150.54-5.45Q151.54-4.25 153.24-3.55 154.94-2.85 156.49-2.85L156.49-2.85Q160.39-2.85 161.94-5.15 163.49-7.45 163.49-12.35 163.49-17.25 161.94-19.75 160.39-22.25 157.99-22.25L157.99-22.25Q156.39-22.25 154.81-21.6 153.24-20.95 152.46-20.38 151.69-19.8 150.54-18.8ZM191.43-11.7L191.43-11.7 175.48-11.7Q175.48-6.9 177.76-4.9 180.03-2.9 183.48-2.9L183.48-2.9Q185.23-2.9 185.93-3.08 186.63-3.25 187.26-3.43 187.88-3.6 188.13-3.7L188.13-3.7Q189.38-4.05 190.28-4.35L190.28-4.35 190.88-1.45Q185.88 0.3 183.08 0.3L183.08 0.3Q177.93 0.3 174.83-2.83 171.73-5.95 171.73-12.23 171.73-18.5 174.66-22 177.58-25.5 182.06-25.5 186.53-25.5 189.03-22.6 191.53-19.7 191.53-14.75L191.53-14.75Q191.53-13.4 191.43-11.7ZM175.73-14.55L175.73-14.55 187.93-14.55Q187.93-18.25 186.63-20.25 185.33-22.25 182.11-22.25 178.88-22.25 177.38-20.1 175.88-17.95 175.73-14.55ZM202.28-19.1L202.28-19.1 202.28 0 198.53 0 198.53-25 200.93-25 201.53-22.05Q203.93-23.95 205.53-24.73 207.13-25.5 209.18-25.5L209.18-25.5Q210.18-25.5 210.68-25.4L210.68-25.4 211.38-25.2 210.78-21.75Q209.88-22.05 208.33-22.05L208.33-22.05Q205.33-22.05 202.28-19.1Z" opacity="1" transform="matrix(1,0,0,1,0,0)" fill="#ffffff" class="undefined-text-1" data-fill-palette-color="secondary" id="text-1"></path></svg></g></svg></g></svg></g></svg></g></svg></g></svg></g></svg></g></svg></g><defs></defs></svg><rect width="448" height="360" fill="none" stroke="none" visibility="hidden"></rect></g></svg></g></svg>